# xmcd
#
# Track frame offsets: 
#        150
#        17470
#        35682
#        55522
#        76420
#        94557
#        111240
#        129215
#        149235
#        167810
#        187207
#
# Disc length: 2751 seconds
#
# Revision: 40
# Processed by: cddbd v1.5.2PL0 Copyright (c) Steve Scherf et al.
# Submitted via: ExactAudioCopy v1.0b1
#
DISCID=910abd0b
DTITLE=倉木麻衣 - delicious way
DYEAR=2001
DGENRE=JPop
TTITLE0=Delicious Way
TTITLE1=Love, Day After Tomorrow
TTITLE2=Secret of my heart
TTITLE3=Stepping ∞ Out
TTITLE4=Baby Tonight～You and Me～
TTITLE5=Can't get enough～gimme your love～
TTITLE6=NEVER GONNA GIVE YOU UP
TTITLE7=Stay by my side
TTITLE8=Everything's All Right
TTITLE9=happy days
TTITLE10=君との時間
EXTD=
EXTT0=
EXTT1=
EXTT2=
EXTT3=
EXTT4=
EXTT5=
EXTT6=
EXTT7=
EXTT8=
EXTT9=
EXTT10=
PLAYORDER=
